<svg id="visual" viewBox="0 0 900 600" width="900" height="600" xmlns="http://www.w3.org/2000/svg" xmlns:xlink="http://www.w3.org/1999/xlink" version="1.1"><rect x="0" y="0" width="900" height="600" fill="#660708"></rect><defs><linearGradient id="grad1_0" x1="33.3%" y1="100%" x2="100%" y2="0%"><stop offset="20%" stop-color="#b1a7a6" stop-opacity="1"></stop><stop offset="80%" stop-color="#b1a7a6" stop-opacity="1"></stop></linearGradient></defs><defs><linearGradient id="grad1_1" x1="33.3%" y1="100%" x2="100%" y2="0%"><stop offset="20%" stop-color="#b1a7a6" stop-opacity="1"></stop><stop offset="80%" stop-color="#935b54" stop-opacity="1"></stop></linearGradient></defs><defs><linearGradient id="grad1_2" x1="33.3%" y1="100%" x2="100%" y2="0%"><stop offset="20%" stop-color="#660708" stop-opacity="1"></stop><stop offset="80%" stop-color="#935b54" stop-opacity="1"></stop></linearGradient></defs><defs><linearGradient id="grad2_0" x1="0%" y1="100%" x2="66.7%" y2="0%"><stop offset="20%" stop-color="#b1a7a6" stop-opacity="1"></stop><stop offset="80%" stop-color="#b1a7a6" stop-opacity="1"></stop></linearGradient></defs><defs><linearGradient id="grad2_1" x1="0%" y1="100%" x2="66.7%" y2="0%"><stop offset="20%" stop-color="#935b54" stop-opacity="1"></stop><stop offset="80%" stop-color="#b1a7a6" stop-opacity="1"></stop></linearGradient></defs><defs><linearGradient id="grad2_2" x1="0%" y1="100%" x2="66.7%" y2="0%"><stop offset="20%" stop-color="#935b54" stop-opacity="1"></stop><stop offset="80%" stop-color="#660708" stop-opacity="1"></stop></linearGradient></defs><g transform="translate(900, 600)"><path d="M-513.8 0C-491.3 -38.2 -468.8 -76.4 -464.6 -124.5C-460.4 -172.6 -474.6 -230.5 -445 -256.9C-415.4 -283.3 -342 -278.2 -304.1 -304.1C-266.1 -329.9 -263.4 -386.8 -237 -410.5C-210.6 -434.2 -160.4 -424.9 -117 -436.6C-73.5 -448.3 -36.8 -481 0 -513.8L0 0Z" fill="#7e362e"></path><path d="M-342.5 0C-327.5 -25.5 -312.5 -50.9 -309.7 -83C-306.9 -115 -316.4 -153.7 -296.6 -171.3C-276.9 -188.9 -228 -185.5 -202.7 -202.7C-177.4 -219.9 -175.6 -257.8 -158 -273.7C-140.4 -289.5 -107 -283.3 -78 -291.1C-49 -298.9 -24.5 -320.7 0 -342.5L0 0Z" fill="#a4807d"></path><path d="M-171.3 0C-163.8 -12.7 -156.3 -25.5 -154.9 -41.5C-153.5 -57.5 -158.2 -76.8 -148.3 -85.6C-138.5 -94.4 -114 -92.7 -101.4 -101.4C-88.7 -110 -87.8 -128.9 -79 -136.8C-70.2 -144.7 -53.5 -141.6 -39 -145.5C-24.5 -149.4 -12.3 -160.3 0 -171.3L0 0Z" fill="#b1a7a6"></path></g><g transform="translate(0, 0)"><path d="M513.8 0C481.6 38.4 449.5 76.9 428.9 114.9C408.3 153 399.3 190.6 380.2 219.5C361.1 248.4 332 268.4 314.7 314.7C297.4 360.9 291.9 433.4 256.9 445C221.9 456.5 157.2 407.3 109.5 408.6C61.7 409.9 30.9 461.9 0 513.8L0 0Z" fill="#7e362e"></path><path d="M342.5 0C321.1 25.6 299.6 51.2 285.9 76.6C272.2 102 266.2 127.1 253.5 146.3C240.7 165.6 221.3 178.9 209.8 209.8C198.2 240.6 194.6 288.9 171.3 296.6C147.9 304.4 104.8 271.5 73 272.4C41.2 273.3 20.6 307.9 0 342.5L0 0Z" fill="#a4807d"></path><path d="M171.3 0C160.5 12.8 149.8 25.6 143 38.3C136.1 51 133.1 63.5 126.7 73.2C120.4 82.8 110.7 89.5 104.9 104.9C99.1 120.3 97.3 144.5 85.6 148.3C74 152.2 52.4 135.8 36.5 136.2C20.6 136.6 10.3 154 0 171.3L0 0Z" fill="#b1a7a6"></path></g></svg>