<svg id="visual" viewBox="0 0 900 600" width="900" height="600" xmlns="http://www.w3.org/2000/svg" xmlns:xlink="http://www.w3.org/1999/xlink" version="1.1"><path d="M827 600L833 594.2C839 588.3 851 576.7 851 564.8C851 553 839 541 833 529.2C827 517.3 827 505.7 830 494C833 482.3 839 470.7 837.5 459C836 447.3 827 435.7 821 423.8C815 412 812 400 819.5 388.2C827 376.3 845 364.7 852.5 353C860 341.3 857 329.7 858.5 317.8C860 306 866 294 860 282.2C854 270.3 836 258.7 828.5 247C821 235.3 824 223.7 822.5 211.8C821 200 815 188 822.5 176.2C830 164.3 851 152.7 858.5 141C866 129.3 860 117.7 849.5 106C839 94.3 824 82.7 819.5 70.8C815 59 821 47 831.5 35.2C842 23.3 857 11.7 864.5 5.8L872 0L900 0L900 5.8C900 11.7 900 23.3 900 35.2C900 47 900 59 900 70.8C900 82.7 900 94.3 900 106C900 117.7 900 129.3 900 141C900 152.7 900 164.3 900 176.2C900 188 900 200 900 211.8C900 223.7 900 235.3 900 247C900 258.7 900 270.3 900 282.2C900 294 900 306 900 317.8C900 329.7 900 341.3 900 353C900 364.7 900 376.3 900 388.2C900 400 900 412 900 423.8C900 435.7 900 447.3 900 459C900 470.7 900 482.3 900 494C900 505.7 900 517.3 900 529.2C900 541 900 553 900 564.8C900 576.7 900 588.3 900 594.2L900 600Z" fill="#b1a7a6"></path><path d="M773 600L777.5 594.2C782 588.3 791 576.7 786.5 564.8C782 553 764 541 756.5 529.2C749 517.3 752 505.7 762.5 494C773 482.3 791 470.7 795.5 459C800 447.3 791 435.7 776 423.8C761 412 740 400 744.5 388.2C749 376.3 779 364.7 795.5 353C812 341.3 815 329.7 816.5 317.8C818 306 818 294 812 282.2C806 270.3 794 258.7 786.5 247C779 235.3 776 223.7 764 211.8C752 200 731 188 738.5 176.2C746 164.3 782 152.7 788 141C794 129.3 770 117.7 758 106C746 94.3 746 82.7 747.5 70.8C749 59 752 47 755 35.2C758 23.3 761 11.7 762.5 5.8L764 0L873 0L865.5 5.8C858 11.7 843 23.3 832.5 35.2C822 47 816 59 820.5 70.8C825 82.7 840 94.3 850.5 106C861 117.7 867 129.3 859.5 141C852 152.7 831 164.3 823.5 176.2C816 188 822 200 823.5 211.8C825 223.7 822 235.3 829.5 247C837 258.7 855 270.3 861 282.2C867 294 861 306 859.5 317.8C858 329.7 861 341.3 853.5 353C846 364.7 828 376.3 820.5 388.2C813 400 816 412 822 423.8C828 435.7 837 447.3 838.5 459C840 470.7 834 482.3 831 494C828 505.7 828 517.3 834 529.2C840 541 852 553 852 564.8C852 576.7 840 588.3 834 594.2L828 600Z" fill="#9d706b"></path><path d="M476 600L480.5 594.2C485 588.3 494 576.7 504.5 564.8C515 553 527 541 533 529.2C539 517.3 539 505.7 552.5 494C566 482.3 593 470.7 600.5 459C608 447.3 596 435.7 596 423.8C596 412 608 400 608 388.2C608 376.3 596 364.7 597.5 353C599 341.3 614 329.7 633.5 317.8C653 306 677 294 657.5 282.2C638 270.3 575 258.7 566 247C557 235.3 602 223.7 612.5 211.8C623 200 599 188 591.5 176.2C584 164.3 593 152.7 597.5 141C602 129.3 602 117.7 599 106C596 94.3 590 82.7 573.5 70.8C557 59 530 47 512 35.2C494 23.3 485 11.7 480.5 5.8L476 0L765 0L763.5 5.8C762 11.7 759 23.3 756 35.2C753 47 750 59 748.5 70.8C747 82.7 747 94.3 759 106C771 117.7 795 129.3 789 141C783 152.7 747 164.3 739.5 176.2C732 188 753 200 765 211.8C777 223.7 780 235.3 787.5 247C795 258.7 807 270.3 813 282.2C819 294 819 306 817.5 317.8C816 329.7 813 341.3 796.5 353C780 364.7 750 376.3 745.5 388.2C741 400 762 412 777 423.8C792 435.7 801 447.3 796.5 459C792 470.7 774 482.3 763.5 494C753 505.7 750 517.3 757.5 529.2C765 541 783 553 787.5 564.8C792 576.7 783 588.3 778.5 594.2L774 600Z" fill="#813b33"></path><path d="M404 600L407 594.2C410 588.3 416 576.7 425 564.8C434 553 446 541 459.5 529.2C473 517.3 488 505.7 507.5 494C527 482.3 551 470.7 557 459C563 447.3 551 435.7 552.5 423.8C554 412 569 400 566 388.2C563 376.3 542 364.7 536 353C530 341.3 539 329.7 561.5 317.8C584 306 620 294 609.5 282.2C599 270.3 542 258.7 533 247C524 235.3 563 223.7 566 211.8C569 200 536 188 528.5 176.2C521 164.3 539 152.7 546.5 141C554 129.3 551 117.7 549.5 106C548 94.3 548 82.7 533 70.8C518 59 488 47 464 35.2C440 23.3 422 11.7 413 5.8L404 0L477 0L481.5 5.8C486 11.7 495 23.3 513 35.2C531 47 558 59 574.5 70.8C591 82.7 597 94.3 600 106C603 117.7 603 129.3 598.5 141C594 152.7 585 164.3 592.5 176.2C600 188 624 200 613.5 211.8C603 223.7 558 235.3 567 247C576 258.7 639 270.3 658.5 282.2C678 294 654 306 634.5 317.8C615 329.7 600 341.3 598.5 353C597 364.7 609 376.3 609 388.2C609 400 597 412 597 423.8C597 435.7 609 447.3 601.5 459C594 470.7 567 482.3 553.5 494C540 505.7 540 517.3 534 529.2C528 541 516 553 505.5 564.8C495 576.7 486 588.3 481.5 594.2L477 600Z" fill="#660708"></path><path d="M269 600L269 594.2C269 588.3 269 576.7 278 564.8C287 553 305 541 299 529.2C293 517.3 263 505.7 270.5 494C278 482.3 323 470.7 347 459C371 447.3 374 435.7 371 423.8C368 412 359 400 342.5 388.2C326 376.3 302 364.7 299 353C296 341.3 314 329.7 315.5 317.8C317 306 302 294 287 282.2C272 270.3 257 258.7 273.5 247C290 235.3 338 223.7 347 211.8C356 200 326 188 308 176.2C290 164.3 284 152.7 291.5 141C299 129.3 320 117.7 326 106C332 94.3 323 82.7 312.5 70.8C302 59 290 47 285.5 35.2C281 23.3 284 11.7 285.5 5.8L287 0L405 0L414 5.8C423 11.7 441 23.3 465 35.2C489 47 519 59 534 70.8C549 82.7 549 94.3 550.5 106C552 117.7 555 129.3 547.5 141C540 152.7 522 164.3 529.5 176.2C537 188 570 200 567 211.8C564 223.7 525 235.3 534 247C543 258.7 600 270.3 610.5 282.2C621 294 585 306 562.5 317.8C540 329.7 531 341.3 537 353C543 364.7 564 376.3 567 388.2C570 400 555 412 553.5 423.8C552 435.7 564 447.3 558 459C552 470.7 528 482.3 508.5 494C489 505.7 474 517.3 460.5 529.2C447 541 435 553 426 564.8C417 576.7 411 588.3 408 594.2L405 600Z" fill="#660708"></path><path d="M161 600L165.5 594.2C170 588.3 179 576.7 180.5 564.8C182 553 176 541 170 529.2C164 517.3 158 505.7 155 494C152 482.3 152 470.7 159.5 459C167 447.3 182 435.7 188 423.8C194 412 191 400 185 388.2C179 376.3 170 364.7 156.5 353C143 341.3 125 329.7 126.5 317.8C128 306 149 294 159.5 282.2C170 270.3 170 258.7 176 247C182 235.3 194 223.7 198.5 211.8C203 200 200 188 188 176.2C176 164.3 155 152.7 149 141C143 129.3 152 117.7 170 106C188 94.3 215 82.7 224 70.8C233 59 224 47 210.5 35.2C197 23.3 179 11.7 170 5.8L161 0L288 0L286.5 5.8C285 11.7 282 23.3 286.5 35.2C291 47 303 59 313.5 70.8C324 82.7 333 94.3 327 106C321 117.7 300 129.3 292.5 141C285 152.7 291 164.3 309 176.2C327 188 357 200 348 211.8C339 223.7 291 235.3 274.5 247C258 258.7 273 270.3 288 282.2C303 294 318 306 316.5 317.8C315 329.7 297 341.3 300 353C303 364.7 327 376.3 343.5 388.2C360 400 369 412 372 423.8C375 435.7 372 447.3 348 459C324 470.7 279 482.3 271.5 494C264 505.7 294 517.3 300 529.2C306 541 288 553 279 564.8C270 576.7 270 588.3 270 594.2L270 600Z" fill="#813b33"></path><path d="M98 600L101 594.2C104 588.3 110 576.7 114.5 564.8C119 553 122 541 116 529.2C110 517.3 95 505.7 90.5 494C86 482.3 92 470.7 102.5 459C113 447.3 128 435.7 123.5 423.8C119 412 95 400 81.5 388.2C68 376.3 65 364.7 62 353C59 341.3 56 329.7 54.5 317.8C53 306 53 294 53 282.2C53 270.3 53 258.7 59 247C65 235.3 77 223.7 90.5 211.8C104 200 119 188 119 176.2C119 164.3 104 152.7 92 141C80 129.3 71 117.7 78.5 106C86 94.3 110 82.7 116 70.8C122 59 110 47 102.5 35.2C95 23.3 92 11.7 90.5 5.8L89 0L162 0L171 5.8C180 11.7 198 23.3 211.5 35.2C225 47 234 59 225 70.8C216 82.7 189 94.3 171 106C153 117.7 144 129.3 150 141C156 152.7 177 164.3 189 176.2C201 188 204 200 199.5 211.8C195 223.7 183 235.3 177 247C171 258.7 171 270.3 160.5 282.2C150 294 129 306 127.5 317.8C126 329.7 144 341.3 157.5 353C171 364.7 180 376.3 186 388.2C192 400 195 412 189 423.8C183 435.7 168 447.3 160.5 459C153 470.7 153 482.3 156 494C159 505.7 165 517.3 171 529.2C177 541 183 553 181.5 564.8C180 576.7 171 588.3 166.5 594.2L162 600Z" fill="#9d706b"></path><path d="M0 600L0 594.2C0 588.3 0 576.7 0 564.8C0 553 0 541 0 529.2C0 517.3 0 505.7 0 494C0 482.3 0 470.7 0 459C0 447.3 0 435.7 0 423.8C0 412 0 400 0 388.2C0 376.3 0 364.7 0 353C0 341.3 0 329.7 0 317.8C0 306 0 294 0 282.2C0 270.3 0 258.7 0 247C0 235.3 0 223.7 0 211.8C0 200 0 188 0 176.2C0 164.3 0 152.7 0 141C0 129.3 0 117.7 0 106C0 94.3 0 82.7 0 70.8C0 59 0 47 0 35.2C0 23.3 0 11.7 0 5.8L0 0L90 0L91.5 5.8C93 11.7 96 23.3 103.5 35.2C111 47 123 59 117 70.8C111 82.7 87 94.3 79.5 106C72 117.7 81 129.3 93 141C105 152.7 120 164.3 120 176.2C120 188 105 200 91.5 211.8C78 223.7 66 235.3 60 247C54 258.7 54 270.3 54 282.2C54 294 54 306 55.5 317.8C57 329.7 60 341.3 63 353C66 364.7 69 376.3 82.5 388.2C96 400 120 412 124.5 423.8C129 435.7 114 447.3 103.5 459C93 470.7 87 482.3 91.5 494C96 505.7 111 517.3 117 529.2C123 541 120 553 115.5 564.8C111 576.7 105 588.3 102 594.2L99 600Z" fill="#b1a7a6"></path></svg>