<svg xmlns="http://www.w3.org/2000/svg" version="1.1" id="Layer_1" x="0px" y="0px" viewBox="0.0 -109.0 1064.0 1064.0" enable-background="new 0 0 1064 846" xml:space="preserve">
<path fill="#DA5657" opacity="1.000000" stroke="none" d=" M446.299866,206.019379  C446.483459,206.780640 446.667084,207.541901 446.744751,208.873993  C446.871765,209.969986 447.104767,210.495102 447.337769,211.020218  C447.487488,211.475708 447.637207,211.931183 447.690857,212.922394  C447.821625,213.979462 448.048492,214.500809 448.275360,215.022141  C448.446564,215.471542 448.617767,215.920929 448.708069,216.912537  C448.871521,217.977203 449.115845,218.499680 449.360168,219.022156  C449.521332,219.466125 449.682465,219.910095 449.760681,221.005783  C450.580109,224.111389 451.482513,226.565292 452.384888,229.019196  C452.515076,229.152786 452.645264,229.286362 452.922180,230.078888  C453.712860,233.654968 454.155884,236.634918 455.043610,239.475891  C456.773438,245.011932 459.938873,250.376373 460.381683,255.980057  C461.308929,267.714569 460.909363,279.558136 460.893219,291.356750  C460.891510,292.611145 459.817322,293.864105 459.240631,295.117737  C458.043304,294.350891 456.547333,293.823151 455.705536,292.771667  C453.321930,289.794312 451.401611,286.432678 448.907379,283.562592  C447.533997,281.982300 445.372955,281.086578 443.567047,279.882202  C443.047058,281.867828 442.291748,283.826447 442.059784,285.845184  C441.669952,289.238068 441.612885,292.669159 441.415802,296.084198  C440.932190,296.116699 440.448578,296.149231 439.964966,296.181732  C438.515747,294.448151 437.066528,292.714539 435.617279,290.980957  C434.337708,288.475159 433.058105,285.969360 431.735535,282.724548  C430.347992,279.317902 429.003448,276.650208 427.658905,273.982544  C427.046570,272.787048 426.434235,271.591583 425.785889,269.704498  C425.058136,267.669830 424.366333,266.326782 423.674561,264.983704  C423.376709,264.448517 423.078857,263.913361 422.756958,262.708496  C422.038666,260.688049 421.344421,259.337219 420.650177,257.986389  C420.363007,257.440948 420.075806,256.895538 419.756714,255.728210  C419.357208,254.400620 418.989594,253.694901 418.621979,252.989197  C418.335541,252.426926 418.049103,251.864670 417.839844,250.560150  C417.970856,249.536255 418.024689,249.254623 418.359467,248.727814  C419.417725,243.261658 420.195038,238.040680 421.146484,231.650116  C424.171875,234.349533 426.341064,236.285004 429.741882,239.319397  C432.969727,206.490479 428.812958,175.286713 429.992676,144.139420  C438.513855,149.826263 447.538635,154.898590 455.424500,161.360718  C464.588898,168.870544 472.754883,177.598724 481.354218,185.798126  C480.894226,186.368164 480.434204,186.938187 479.974213,187.508224  C477.680420,185.913483 475.459991,184.197723 473.076019,182.751648  C469.264679,180.439743 465.543213,177.791061 461.428619,176.207581  C453.282562,173.072632 449.150452,175.193634 445.480194,183.800186  C445.017609,185.168564 444.910675,186.049698 444.803741,186.930817  C444.842285,189.683533 444.880859,192.436234 444.730896,195.893372  C444.806641,197.737381 445.070892,198.876984 445.335144,200.016602  C445.522308,201.096085 445.709473,202.175568 445.780273,203.840439  C445.875885,204.957001 446.087891,205.488190 446.299866,206.019379 z" />
<path fill="#D04A4A" opacity="1.000000" stroke="none" d=" M476.992310,283.074829   C479.375824,283.007599 481.759338,282.940399 484.769836,283.044189   C485.924042,283.157379 486.451233,283.099548 486.978455,283.041748   C488.384155,282.989502 489.789856,282.937225 491.963989,283.123901   C499.989960,284.943359 499.995270,284.943359 500.002991,292.785065   C500.010620,300.559052 500.091400,308.334167 499.984650,316.106689   C499.859863,325.189819 503.172455,333.185242 507.472137,340.906525   C514.043945,350.999817 520.590576,361.109680 527.221008,371.164276   C528.001465,372.347839 529.242126,373.227997 530.641357,374.724243   C533.017761,378.464478 535.022156,381.729279 537.219604,385.264465   C538.969727,387.997833 540.526855,390.460785 542.161621,393.298035   C543.249512,400.035156 544.408813,406.380280 545.170654,412.772736   C545.374939,414.487000 544.367493,416.345612 543.916321,418.137970   C542.264954,417.286285 540.159119,416.825928 539.034912,415.520294   C530.795776,405.951660 522.826782,396.150665 514.600952,386.570282   C512.341064,383.938263 509.498657,381.806458 506.923553,379.445099   C506.279114,379.716827 505.634674,379.988556 504.990234,380.260254   C504.990234,385.637939 505.294098,391.040985 504.847870,396.381348   C504.656433,398.672668 502.906128,400.833710 501.864075,403.053955   C490.476715,385.659729 479.089325,368.265533 467.953400,350.282104   C468.804596,346.875244 469.548035,344.078918 469.969879,341.234833   C470.579376,337.125793 470.955780,332.982208 471.431641,328.853394   C472.103302,328.673187 472.774963,328.492981 473.446625,328.312775   C475.902954,331.286316 478.412689,334.217621 480.804352,337.242310   C485.640656,343.358704 490.320770,349.601379 495.267120,355.626282   C496.774567,357.462433 499.712524,358.563110 499.683990,354.855774   C499.620697,346.631531 500.411407,337.778992 497.696991,330.333557   C492.882904,317.128967 485.635223,304.820801 479.609161,292.041656   C478.297424,289.259918 477.842102,286.074371 476.992310,283.074829  z" />
<path fill="#D45050" opacity="1.000000" stroke="none" d=" M476.656555,282.951721   C477.842102,286.074371 478.297424,289.259918 479.609161,292.041656   C485.635223,304.820801 492.882904,317.128967 497.696991,330.333557   C500.411407,337.778992 499.620697,346.631531 499.683990,354.855774   C499.712524,358.563110 496.774567,357.462433 495.267120,355.626282   C490.320770,349.601379 485.640656,343.358704 480.804352,337.242310   C478.412689,334.217621 475.902954,331.286316 473.446625,328.312775   C472.774963,328.492981 472.103302,328.673187 471.431641,328.853394   C470.955780,332.982208 470.579376,337.125793 469.969879,341.234833   C469.548035,344.078918 468.804596,346.875244 467.875824,349.930267   C456.923676,330.667145 446.300537,311.166718 435.647339,291.323608   C437.066528,292.714539 438.515747,294.448151 439.964966,296.181732   C440.448578,296.149231 440.932190,296.116699 441.415802,296.084198   C441.612885,292.669159 441.669952,289.238068 442.059784,285.845184   C442.291748,283.826447 443.047058,281.867828 443.567047,279.882202   C445.372955,281.086578 447.533997,281.982300 448.907379,283.562592   C451.401611,286.432678 453.321930,289.794312 455.705536,292.771667   C456.547333,293.823151 458.043304,294.350891 459.240631,295.117737   C459.817322,293.864105 460.891510,292.611145 460.893219,291.356750   C460.909363,279.558136 461.308929,267.714569 460.381683,255.980057   C459.938873,250.376373 456.773438,245.011932 455.043610,239.475891   C454.155884,236.634918 453.712860,233.654968 453.049927,230.327805   C459.983673,229.917770 466.936310,229.917770 474.763855,229.917770   C474.763855,237.206268 474.891174,244.096527 474.601288,250.969193   C474.565399,251.819733 472.381622,253.081299 471.066772,253.269531   C468.506134,253.636093 465.855927,253.376968 462.315430,253.376968   C463.162201,255.947296 463.568512,257.642761 464.263580,259.210144   C467.220825,265.878601 470.199585,272.539520 473.326660,279.129028   C473.987762,280.522156 475.305511,281.603607 476.656555,282.951721  z" />
<path fill="#DD5A5B" opacity="1.000000" stroke="none" d=" M429.847412,143.968109   C428.812958,175.286713 432.969727,206.490479 429.741882,239.319397   C426.341064,236.285004 424.171875,234.349533 421.146484,231.650116   C420.195038,238.040680 419.417725,243.261658 418.196045,248.578125   C417.383484,248.435883 417.015289,248.198151 416.647095,247.960419   C416.360321,247.409744 416.073517,246.859070 415.763855,245.690765   C415.400513,244.372162 415.060059,243.671204 414.719604,242.970261   C414.083466,241.439468 413.447327,239.908676 412.780701,237.601898   C410.762085,231.208771 408.773926,225.591644 406.785736,219.974533   C406.058380,217.836960 405.331024,215.699402 404.627502,212.884796   C404.375854,211.464798 404.100342,210.721878 403.824829,209.978958   C403.629456,209.531509 403.434082,209.084045 403.315125,208.096741   C403.178284,207.029678 402.964996,206.502487 402.751709,205.975311   C402.218567,204.215485 401.685425,202.455643 401.260193,200.134705   C401.174866,199.041473 400.981689,198.509323 400.788513,197.977188   C400.609253,197.523911 400.430023,197.070618 400.343079,196.085999   C400.257965,195.028931 400.080566,194.503174 399.903137,193.977417   C399.660187,193.216263 399.417206,192.455109 399.294708,191.134064   C399.265778,190.044510 399.116364,189.514877 398.966980,188.985229   C398.694550,187.902649 398.422119,186.820068 398.272705,185.159302   C398.248810,184.048492 398.101929,183.515854 397.955048,182.983215   C397.673767,181.241028 397.392487,179.498856 397.302979,177.049500   C397.320038,175.232239 397.145325,174.122162 396.970612,173.012085   C396.863159,169.615402 396.755707,166.218719 396.948364,162.241791   C397.241364,160.804535 397.234253,159.947510 397.227142,159.090500   C397.554016,149.438171 402.248596,142.687302 411.071136,140.348419   C413.829437,140.387665 415.889679,140.264862 417.949951,140.142059   C420.424133,140.757309 422.898315,141.372559 425.914673,142.429596   C427.253357,143.155777 428.049896,143.440186 428.846405,143.724579   C429.146423,143.573502 429.431702,143.597580 429.847412,143.968109  z" />
<path fill="#CA4242" opacity="1.000000" stroke="none" d=" M501.955933,403.389191   C502.906128,400.833710 504.656433,398.672668 504.847870,396.381348   C505.294098,391.040985 504.990234,385.637939 504.990234,380.260254   C505.634674,379.988556 506.279114,379.716827 506.923553,379.445099   C509.498657,381.806458 512.341064,383.938263 514.600952,386.570282   C522.826782,396.150665 530.795776,405.951660 539.034912,415.520294   C540.159119,416.825928 542.264954,417.286285 543.916321,418.137970   C544.367493,416.345612 545.374939,414.487000 545.170654,412.772736   C544.408813,406.380280 543.249512,400.035156 542.448242,393.460938   C543.910278,394.545990 545.194336,395.814087 546.410645,397.144104   C549.726501,400.769958 553.013794,404.421936 556.312378,408.063568   C559.811401,412.402649 563.091187,416.943024 566.853882,421.039948   C575.322327,430.260498 584.041565,439.248413 594.987610,446.671234   C595.475037,450.773041 595.793396,454.187103 595.953735,457.608612   C596.146667,461.725830 594.447937,464.213318 589.642578,464.041199   C588.881226,464.004913 588.446167,463.983002 587.812988,463.695465   C574.769897,451.845062 561.925232,440.260162 549.079224,428.676666   C548.831909,428.453705 548.601013,428.140076 548.307678,428.052612   C546.625977,427.551025 544.606873,426.334595 543.329285,426.866547   C542.154663,427.355682 541.262573,429.708160 541.140015,431.308197   C540.822632,435.451233 541.339478,439.674774 540.825317,443.778717   C540.587463,445.677673 538.722961,447.372833 537.595886,449.160370   C525.746521,434.015045 513.897156,418.869720 501.955933,403.389191  z" />
<path fill="#B8312D" opacity="1.000000" stroke="none" d=" M588.011169,463.961121   C588.446167,463.983002 588.881226,464.004913 589.846497,464.308167   C594.925110,466.886261 599.273132,469.798370 604.061768,471.356873   C615.486511,475.075165 623.119202,470.895020 624.630859,459.022156   C625.722107,450.451355 624.360291,441.568207 624.092529,432.824371   C624.341370,433.038818 624.738586,433.208832 624.817932,433.473999   C630.219543,451.525269 634.860657,469.783539 632.478088,488.802856   C630.368591,505.642700 619.137390,511.996735 603.507690,505.173462   C595.982788,501.888397 589.188904,496.928925 582.196167,492.196350   C582.885986,489.657227 583.826904,487.668091 583.925415,485.638123   C584.167053,480.656708 583.607971,475.606110 584.208984,470.685669   C584.497437,468.324585 586.684143,466.195374 588.011169,463.961121  z" />
<path fill="#C23A39" opacity="1.000000" stroke="none" d=" M587.812988,463.695496   C586.684143,466.195374 584.497437,468.324585 584.208984,470.685669   C583.607971,475.606110 584.167053,480.656708 583.925415,485.638123   C583.826904,487.668091 582.885986,489.657227 582.014038,491.911804   C571.169006,482.612030 560.507812,473.203583 550.168335,463.454010   C545.726868,459.265961 541.953125,454.369781 537.735962,449.477844   C538.722961,447.372833 540.587463,445.677673 540.825317,443.778717   C541.339478,439.674774 540.822632,435.451233 541.140015,431.308197   C541.262573,429.708160 542.154663,427.355682 543.329285,426.866547   C544.606873,426.334595 546.625977,427.551025 548.307678,428.052612   C548.601013,428.140076 548.831909,428.453705 549.079224,428.676666   C561.925232,440.260162 574.769897,451.845062 587.812988,463.695496  z" />
<path fill="#CA4242" opacity="1.000000" stroke="none" d=" M507.942627,340.709412   C503.172455,333.185242 499.859863,325.189819 499.984650,316.106689   C500.091400,308.334167 500.010620,300.559052 500.002991,292.785065   C499.995270,284.943359 499.989960,284.943359 492.379456,283.206482   C496.500580,282.966644 500.974548,282.857422 505.449097,282.820190   C506.418549,282.812134 507.390137,283.062622 509.082489,283.291779   C509.082489,287.942261 509.259613,292.545685 509.027252,297.128357   C508.836700,300.886047 510.377258,302.108612 513.985657,301.945801   C518.624329,301.736511 523.295471,301.717773 527.920105,302.058411   C529.246216,302.156097 531.539734,303.756317 531.560547,304.707611   C531.813660,316.283173 531.724976,327.866241 531.724976,340.512329   C523.584839,340.512329 515.998962,340.512329 507.942627,340.709412  z" />
<path fill="#BC3736" opacity="1.000000" stroke="none" d=" M544.003845,255.724976   C548.632324,254.319199 550.476196,256.055603 550.200928,260.831299   C549.962219,264.972626 550.286987,269.144043 550.126526,273.293030   C549.994263,276.713287 551.354919,278.064636 554.800720,277.992798   C561.612244,277.850739 568.433533,278.123535 575.242615,277.932739   C578.813721,277.832703 580.414795,278.944763 580.330200,282.709534   C580.162170,290.185455 580.176636,297.669891 580.325012,305.146637   C580.394226,308.637177 578.973694,309.803314 575.576233,309.731964   C568.100037,309.574860 560.614624,309.578430 553.139648,309.772858   C549.657227,309.863434 548.433655,308.546539 548.468933,305.127014   C548.556396,296.653870 548.393127,288.178162 548.325867,278.851196   C548.521790,273.581177 548.605713,269.154175 548.956970,264.748444   C549.290222,260.567535 548.254761,257.307983 544.003845,255.724976  z" />
<path fill="#AD2925" opacity="1.000000" stroke="none" d=" M647.950623,276.208191   C649.774353,276.207672 651.114380,276.118866 652.439392,276.222290   C655.975403,276.498383 657.534302,275.094421 657.706726,271.383118   C657.786011,269.677094 659.274170,266.749695 660.367798,266.631165   C663.088013,266.336365 667.496277,266.457977 668.385742,268.024933   C669.680359,270.305756 668.669617,274.033997 668.154724,277.062225   C668.071777,277.549866 665.448547,277.869629 664.018372,277.810577   C660.758362,277.676086 659.553345,279.153290 659.600586,282.285919   C659.685913,287.950409 659.541321,293.618164 659.604370,299.283325   C659.637634,302.271606 658.730408,304.004089 655.340027,303.945160   C648.842957,303.832214 642.340759,303.864502 635.843323,303.980652   C632.812195,304.034821 631.646362,302.648315 631.667908,299.766296   C631.716553,293.267426 631.728882,286.767517 631.669617,280.268860   C631.642273,277.270569 633.045349,276.101105 635.961914,276.182190   C639.791870,276.288727 643.627136,276.207855 647.950623,276.208191  z" />
<path fill="#BC3736" opacity="1.000000" stroke="none" d=" M571.208130,232.915436   C572.005676,233.056076 572.337097,233.099792 572.669373,233.108337   C583.427002,233.385117 584.808655,235.116989 582.961304,246.012863   C582.933472,246.176758 582.972473,246.373657 582.894775,246.504303   C579.774780,251.748703 574.810974,247.930878 570.786987,248.754913   C569.877075,248.941223 567.569092,246.723099 567.405029,245.422531   C566.194580,235.824371 566.314209,235.809280 556.657898,235.831619   C545.597717,235.857208 545.597656,235.857208 545.597534,224.772690   C545.597351,212.174774 545.598328,212.084488 558.128113,212.215027   C570.569336,212.344650 569.153015,210.150024 569.401001,223.267227   C569.461182,226.452835 570.275024,229.624207 571.208130,232.915436  z" />
<path fill="#C23A39" opacity="1.000000" stroke="none" d=" M574.547241,355.225220   C566.131653,355.255737 558.171509,355.255737 549.984009,355.255737   C549.984009,345.906982 549.984009,337.162994 549.984009,327.860077   C558.322876,327.860077 566.289001,327.746826 574.243713,327.997589   C575.286011,328.030457 577.107300,329.900177 577.144836,330.969177   C577.396362,338.123688 577.343506,345.293884 577.153381,352.452728   C577.128662,353.385101 575.752686,354.281555 574.547241,355.225220  z" />
<path fill="#C23A39" opacity="1.000000" stroke="none" d=" M624.071899,432.432068   C624.360291,441.568207 625.722107,450.451355 624.630859,459.022156   C623.119202,470.895020 615.486511,475.075165 604.061768,471.356873   C599.273132,469.798370 594.925110,466.886261 590.172852,464.322571   C594.447937,464.213318 596.146667,461.725830 595.953735,457.608612   C595.793396,454.187103 595.475037,450.773041 595.210693,446.901794   C598.038452,447.757507 600.794250,449.330811 603.746033,450.317444   C608.682495,451.967468 613.526306,452.179321 617.814575,447.108582   C621.777039,441.031952 621.218689,434.913727 620.691528,428.793732   C620.381226,425.191223 620.113647,421.585083 619.826904,417.980560   C621.234985,422.666962 622.643127,427.353333 624.071899,432.432068  z" />
<path fill="#CA4242" opacity="1.000000" stroke="none" d=" M543.549561,255.624817   C548.254761,257.307983 549.290222,260.567535 548.956970,264.748444   C548.605713,269.154175 548.521790,273.581177 548.205811,278.379669   C542.262878,278.779510 536.431702,278.682648 530.609070,278.862427   C527.278748,278.965271 525.716675,277.973602 525.906982,274.340240   C526.159119,269.524628 526.169739,264.674835 525.904419,259.860687   C525.702271,256.193054 527.323608,255.220093 530.612793,255.367569   C534.767639,255.553864 538.933960,255.484009 543.549561,255.624817  z" />
<path fill="#BC3736" opacity="1.000000" stroke="none" d=" M556.435486,407.604980  C553.013794,404.421936 549.726501,400.769958 546.410645,397.144104  C545.194336,395.814087 543.910278,394.545990 542.370544,393.086670  C540.526855,390.460785 538.969727,387.997833 537.211304,384.866089  C535.997803,380.942383 534.985596,377.687500 533.973389,374.432587  C540.249146,374.352295 546.528137,374.366241 552.799316,374.152222  C555.971558,374.043945 556.748169,375.592072 556.715149,378.386139  C556.601868,387.972168 556.601868,397.559540 556.435486,407.604980 z" />
<path fill="#B22F2C" opacity="1.000000" stroke="none" d=" M641.469666,360.475800  C635.415222,360.922943 629.647095,361.221832 623.884094,361.144440  C622.935242,361.131683 621.248718,359.508118 621.198364,358.560150  C620.926331,353.440369 620.888123,348.288422 621.195679,343.173187  C621.262085,342.068573 623.033752,341.016296 624.123047,340.056946  C624.412720,339.801819 625.087646,339.935059 625.580627,339.967346  C630.942932,340.318207 636.304077,340.684509 641.665527,341.046570  C641.696289,347.431671 641.727051,353.816803 641.469666,360.475800 z" />
<path fill="#B22F2C" opacity="1.000000" stroke="none" d=" M614.239136,322.265869  C614.144958,323.012238 614.177917,323.421204 613.990479,323.648438  C612.233154,325.778839 596.337830,326.734406 594.692444,324.680847  C594.044250,323.871857 593.847534,322.532074 593.820435,321.424835  C593.722656,317.432220 593.841980,313.434662 593.767395,309.441071  C593.712036,306.481476 595.026917,305.234436 597.989685,305.313110  C617.933472,305.842682 613.820679,301.733429 614.239136,322.265869 z" />
<path fill="#CA4242" opacity="1.000000" stroke="none" d=" M519.148193,247.772583  C519.029907,254.730072 519.028748,254.818039 512.506287,254.732727  C500.299591,254.573074 501.753906,256.795105 501.649872,244.002945  C501.632507,241.870163 501.827209,239.735672 501.937592,237.299850  C507.618774,237.299850 513.004517,237.299850 519.148682,237.299850  C519.148682,240.782822 519.148682,244.051865 519.148193,247.772583 z" />
<path fill="#AD2925" opacity="1.000000" stroke="none" d=" M613.273071,236.789948  C613.391724,224.072800 611.708923,225.680603 624.175415,225.317886  C629.104187,225.174500 631.010254,226.580765 630.815186,231.769623  C630.333984,244.567444 632.288147,242.518723 618.944702,242.927734  C614.575439,243.061661 612.666199,241.644272 613.273071,236.789948 z" />
<path fill="#B22F2C" opacity="1.000000" stroke="none" d=" M591.236816,343.360046  C591.056091,340.062561 592.231079,338.476074 595.254333,338.603668  C595.585388,338.617645 595.918152,338.602936 596.249817,338.591980  C608.120483,338.200165 610.526306,340.580353 607.566650,352.226379  C606.030273,358.271576 599.933350,354.207184 596.005371,355.108154  C593.717468,355.632996 591.195068,355.264740 591.257996,351.768097  C591.305786,349.114044 591.244507,346.458008 591.236816,343.360046 z" />
<path fill="#B22F2C" opacity="1.000000" stroke="none" d=" M599.246460,270.958038  C599.181702,278.668549 599.174255,278.875061 591.774231,278.607361  C588.414795,278.485809 583.353882,281.000885 583.246216,273.920929  C583.074768,262.652740 584.925964,260.880768 596.192993,262.895203  C601.214294,263.792999 598.503662,267.862946 599.246460,270.958038 z" />
<path fill="#C23A39" opacity="1.000000" stroke="none" d=" M518.503235,217.613373  C517.033752,203.755676 516.247498,204.032135 531.650330,205.490387  C531.650330,208.960510 531.818115,212.547119 531.531799,216.097092  C531.460571,216.979431 529.936829,218.420517 529.052795,218.441803  C525.625061,218.524368 522.186096,218.137772 518.503235,217.613373 z" />
<path fill="#B22F2C" opacity="1.000000" stroke="none" d=" M592.170837,374.997681  C597.707214,377.426361 594.591736,381.907501 594.852844,385.414642  C594.903931,386.100311 591.678650,387.639984 589.903870,387.743347  C583.093567,388.139832 579.750793,383.001251 582.706726,376.816559  C583.139526,375.910980 584.705627,375.216919 585.839294,375.050110  C587.780029,374.764526 589.793457,374.972992 592.170837,374.997681 z" />
<path fill="#AD2925" opacity="1.000000" stroke="none" d=" M623.736694,295.705688  C622.311890,296.180481 621.192749,296.523468 620.061279,296.570679  C613.561401,296.841614 610.641052,292.982819 613.490234,287.008331  C614.184998,285.551361 617.896179,285.052307 620.228760,285.031311  C621.705933,285.018005 624.233582,286.496643 624.468994,287.671173  C624.962280,290.132111 624.252441,292.834229 623.736694,295.705688 z" />
<path fill="#B22F2C" opacity="1.000000" stroke="none" d=" M595.593262,214.639053  C587.817566,214.687775 587.552734,214.575714 587.753418,208.930908  C587.818359,207.105103 588.418091,203.945831 589.294983,203.751495  C592.078857,203.134628 595.449829,202.882828 597.901733,204.003738  C599.152954,204.575729 599.415710,208.430786 599.186157,210.707199  C599.045044,212.106323 597.129272,213.326523 595.593262,214.639053 z" />
<path fill="#B22F2C" opacity="1.000000" stroke="none" d=" M615.208496,258.079742  C616.700317,257.814087 617.850952,257.665161 619.003052,257.653442  C624.803589,257.594452 628.026917,262.440704 624.728760,267.252716  C623.604675,268.892761 619.518738,268.817932 616.774963,268.863953  C615.797485,268.880341 614.009705,266.978851 613.948975,265.877930  C613.810242,263.363098 614.509277,260.802032 615.208496,258.079742 z" />
<path fill="#AD2925" opacity="1.000000" stroke="none" d=" M619.909485,417.688293  C620.113647,421.585083 620.381226,425.191223 620.691528,428.793732  C621.218689,434.913727 621.777039,441.031952 618.092834,446.833344  C622.778564,432.657043 617.499817,418.878967 615.799988,404.758179  C617.197327,408.970795 618.594727,413.183380 619.909485,417.688293 z" />
<path fill="#D04A4A" opacity="1.000000" stroke="none" d=" M491.791168,260.919312  C499.495331,259.553406 499.885895,259.860474 499.231873,267.575439  C492.376007,268.003632 492.376007,268.003632 491.791168,260.919312 z" />
<path fill="#AD2925" opacity="1.000000" stroke="none" d=" M642.345093,324.650482  C640.469849,324.563202 638.594666,324.475952 636.083618,323.939941  C635.545044,320.817566 635.642334,318.143951 635.739624,315.470306  C638.055542,315.568695 640.371399,315.667084 643.165100,316.285919  C643.210266,319.421112 642.777649,322.035797 642.345093,324.650482 z" />
<path fill="#AD2925" opacity="1.000000" stroke="none" d=" M491.529205,261.126221  C492.376007,268.003632 492.376007,268.003632 499.146271,267.992554  C496.985260,268.261292 494.419495,268.533295 491.853760,268.805298  C491.658264,266.314606 491.462738,263.823883 491.529205,261.126221 z" />
<path fill="#CA4242" opacity="1.000000" stroke="none" d=" M533.596680,374.368225  C534.985596,377.687500 535.997803,380.942383 537.018311,384.595673  C535.022156,381.729279 533.017761,378.464478 530.982239,374.855225  C531.707458,374.441803 532.463684,374.372864 533.596680,374.368225 z" />
<path fill="#D45050" opacity="1.000000" stroke="none" d=" M406.761597,220.336975  C408.773926,225.591644 410.762085,231.208771 412.777740,237.247116  C410.782623,232.012039 408.760010,226.355713 406.761597,220.336975 z" />
<path fill="#250506" opacity="1.000000" stroke="none" d=" M635.484375,315.582733  C635.642334,318.143951 635.545044,320.817566 635.614014,323.969604  C632.766541,321.708618 633.545410,318.730377 635.484375,315.582733 z" />
<path fill="#250506" opacity="1.000000" stroke="none" d=" M642.616028,324.588257  C642.777649,322.035797 643.210266,319.421112 643.659607,316.360046  C645.219604,318.950043 646.251587,321.939514 642.616028,324.588257 z" />
<path fill="#D45050" opacity="1.000000" stroke="none" d=" M427.679291,274.323181  C429.003448,276.650208 430.347992,279.317902 431.717926,282.390198  C430.395416,280.084473 429.047546,277.374146 427.679291,274.323181 z" />
<path fill="#DA5657" opacity="1.000000" stroke="none" d=" M417.637512,139.975784  C415.889679,140.264862 413.829437,140.387665 411.439850,140.388184  C413.182037,140.113770 415.253571,139.961639 417.637512,139.975784 z" />
<path fill="#D45050" opacity="1.000000" stroke="none" d=" M452.372192,228.665283  C451.482513,226.565292 450.580109,224.111389 449.750763,221.364502  C450.669037,223.484802 451.514252,225.898087 452.372192,228.665283 z" />
<path fill="#D45050" opacity="1.000000" stroke="none" d=" M423.684448,265.310791  C424.366333,266.326782 425.058136,267.669830 425.771973,269.367279  C425.094147,268.360413 424.394257,266.999146 423.684448,265.310791 z" />
<path fill="#D45050" opacity="1.000000" stroke="none" d=" M420.661591,258.314819  C421.344421,259.337219 422.038666,260.688049 422.750916,262.396423  C422.070251,261.383789 421.371613,260.013519 420.661591,258.314819 z" />
<path fill="#D45050" opacity="1.000000" stroke="none" d=" M396.844360,173.271179  C397.145325,174.122162 397.320038,175.232239 397.376129,176.610474  C397.077698,175.762527 396.897888,174.646393 396.844360,173.271179 z" />
<path fill="#D45050" opacity="1.000000" stroke="none" d=" M445.419464,199.687927  C445.070892,198.876984 444.806641,197.737381 444.656677,196.347076  C445.015259,197.184006 445.259521,198.271622 445.419464,199.687927 z" />
<path fill="#D45050" opacity="1.000000" stroke="none" d=" M397.078247,159.355820  C397.234253,159.947510 397.241364,160.804535 397.101624,161.834503  C396.946289,161.212036 396.937836,160.416580 397.078247,159.355820 z" />
<path fill="#D45050" opacity="1.000000" stroke="none" d=" M444.979004,186.672333  C444.910675,186.049698 445.017609,185.168564 445.314087,184.136536  C445.387177,184.795013 445.270691,185.604431 444.979004,186.672333 z" />
<path fill="#DA5657" opacity="1.000000" stroke="none" d=" M428.626678,143.481659  C428.049896,143.440186 427.253357,143.155777 426.223328,142.654480  C426.795502,142.704636 427.601227,142.971680 428.626678,143.481659 z" />
<path fill="#CA4242" opacity="1.000000" stroke="none" d=" M486.795898,282.948181  C486.451233,283.099548 485.924042,283.157379 485.210449,283.126678  C485.553833,282.976990 486.083588,282.915802 486.795898,282.948181 z" />
<path fill="#D45050" opacity="1.000000" stroke="none" d=" M397.864075,183.224487  C398.101929,183.515854 398.248810,184.048492 398.311890,184.738342  C398.076447,184.418945 397.924744,183.942368 397.864075,183.224487 z" />
<path fill="#D45050" opacity="1.000000" stroke="none" d=" M398.878540,189.225922  C399.116364,189.514877 399.265778,190.044510 399.332825,190.731018  C399.096985,190.414124 398.943542,189.940384 398.878540,189.225922 z" />
<path fill="#D45050" opacity="1.000000" stroke="none" d=" M399.830566,194.224457  C400.080566,194.503174 400.257965,195.028931 400.360413,195.716675  C400.109619,195.409607 399.933807,194.940552 399.830566,194.224457 z" />
<path fill="#D45050" opacity="1.000000" stroke="none" d=" M400.718597,198.229706  C400.981689,198.509323 401.174866,199.041473 401.289062,199.739410  C401.022949,199.430862 400.835815,198.956528 400.718597,198.229706 z" />
<path fill="#D45050" opacity="1.000000" stroke="none" d=" M446.363098,205.761490  C446.087891,205.488190 445.875885,204.957001 445.732269,204.253601  C446.009216,204.555466 446.217773,205.029526 446.363098,205.761490 z" />
<path fill="#D45050" opacity="1.000000" stroke="none" d=" M402.692139,206.231415  C402.964996,206.502487 403.178284,207.029678 403.318970,207.726181  C403.041779,207.426163 402.837189,206.956848 402.692139,206.231415 z" />
<path fill="#D45050" opacity="1.000000" stroke="none" d=" M447.388367,210.759552  C447.104767,210.495102 446.871765,209.969986 446.700806,209.269836  C446.988190,209.562820 447.213562,210.030853 447.388367,210.759552 z" />
<path fill="#D45050" opacity="1.000000" stroke="none" d=" M403.773132,210.281647  C404.100342,210.721878 404.375854,211.464798 404.631958,212.516693  C404.315521,212.078537 404.018463,211.331436 403.773132,210.281647 z" />
<path fill="#D45050" opacity="1.000000" stroke="none" d=" M448.316315,214.765076  C448.048492,214.500809 447.821625,213.979462 447.653625,213.284958  C447.927399,213.577194 448.142334,214.042603 448.316315,214.765076 z" />
<path fill="#D45050" opacity="1.000000" stroke="none" d=" M449.399323,218.760406  C449.115845,218.499680 448.871521,217.977203 448.686157,217.278152  C448.976227,217.567276 449.207367,218.032974 449.399323,218.760406 z" />
<path fill="#D45050" opacity="1.000000" stroke="none" d=" M414.699005,243.272339  C415.060059,243.671204 415.400513,244.372162 415.755737,245.375214  C415.406464,244.976364 415.042450,244.275391 414.699005,243.272339 z" />
<path fill="#D45050" opacity="1.000000" stroke="none" d=" M416.639893,248.262344  C417.015289,248.198151 417.383484,248.435883 417.915100,248.823303  C418.024689,249.254623 417.970856,249.536255 417.829346,250.239685  C417.371948,249.962433 417.002289,249.263351 416.639893,248.262344 z" />
<path fill="#D45050" opacity="1.000000" stroke="none" d=" M418.622620,253.296814  C418.989594,253.694901 419.357208,254.400620 419.759003,255.413986  C419.403198,255.015900 419.013214,254.310181 418.622620,253.296814 z" />
</svg>