<svg id="visual" viewBox="0 0 900 600" width="900" height="600" xmlns="http://www.w3.org/2000/svg" xmlns:xlink="http://www.w3.org/1999/xlink" version="1.1"><rect x="0" y="0" width="900" height="600" fill="#660708"></rect><path d="M0 129L75 129L75 115L150 115L150 165L225 165L225 57L300 57L300 132L375 132L375 81L450 81L450 158L525 158L525 115L600 115L600 113L675 113L675 107L750 107L750 70L825 70L825 91L900 91L900 128L900 601L900 601L825 601L825 601L750 601L750 601L675 601L675 601L600 601L600 601L525 601L525 601L450 601L450 601L375 601L375 601L300 601L300 601L225 601L225 601L150 601L150 601L75 601L75 601L0 601Z" fill="#b1a7a6"></path><path d="M0 192L75 192L75 166L150 166L150 253L225 253L225 150L300 150L300 135L375 135L375 200L450 200L450 261L525 261L525 184L600 184L600 223L675 223L675 231L750 231L750 175L825 175L825 248L900 248L900 133L900 601L900 601L825 601L825 601L750 601L750 601L675 601L675 601L600 601L600 601L525 601L525 601L450 601L450 601L375 601L375 601L300 601L300 601L225 601L225 601L150 601L150 601L75 601L75 601L0 601Z" fill="#b58782"></path><path d="M0 235L75 235L75 238L150 238L150 353L225 353L225 282L300 282L300 360L375 360L375 248L450 248L450 323L525 323L525 340L600 340L600 358L675 358L675 298L750 298L750 273L825 273L825 304L900 304L900 337L900 601L900 601L825 601L825 601L750 601L750 601L675 601L675 601L600 601L600 601L525 601L525 601L450 601L450 601L375 601L375 601L300 601L300 601L225 601L225 601L150 601L150 601L75 601L75 601L0 601Z" fill="#b4675f"></path><path d="M0 405L75 405L75 357L150 357L150 362L225 362L225 466L300 466L300 342L375 342L375 457L450 457L450 331L525 331L525 446L600 446L600 465L675 465L675 460L750 460L750 451L825 451L825 458L900 458L900 402L900 601L900 601L825 601L825 601L750 601L750 601L675 601L675 601L600 601L600 601L525 601L525 601L450 601L450 601L375 601L375 601L300 601L300 601L225 601L225 601L150 601L150 601L75 601L75 601L0 601Z" fill="#ae453c"></path><path d="M0 512L75 512L75 512L150 512L150 534L225 534L225 559L300 559L300 478L375 478L375 438L450 438L450 562L525 562L525 437L600 437L600 521L675 521L675 451L750 451L750 552L825 552L825 526L900 526L900 524L900 601L900 601L825 601L825 601L750 601L750 601L675 601L675 601L600 601L600 601L525 601L525 601L450 601L450 601L375 601L375 601L300 601L300 601L225 601L225 601L150 601L150 601L75 601L75 601L0 601Z" fill="#a4161a"></path></svg>